<!--?xml version="1.0" encoding="utf-8"?-->
<!-- Generator: Adobe Illustrator 18.1.1, SVG Export Plug-In . SVG Version: 6.00 Build 0)  -->

<svg version="1.1" id="_x31_0" xmlns="http://www.w3.org/2000/svg" xmlns:xlink="http://www.w3.org/1999/xlink" x="0px" y="0px" viewBox="0 0 512 512" style="width: 256px; height: 256px; opacity: 1;" xml:space="preserve">
<style type="text/css">
	.st0{fill:#374149;}
</style>
<g>
	<path class="st0" d="M492.696,226.098c-7.107-6.793-14.458-13.816-15.977-20.489c-1.608-7.069,2.054-16.846,5.592-26.304
		c4.508-12.038,9.166-24.492,4.381-34.411c-4.881-10.123-17.673-14.266-30.042-18.274c-9.481-3.069-19.281-6.242-23.67-11.738
		c-4.43-5.546-5.362-15.858-6.262-25.826c-1.166-12.9-2.369-26.238-11.089-33.204c-4.265-3.404-9.858-4.992-17.622-4.992
		c-5.45,0-11.362,0.792-17.078,1.558c-5.477,0.734-11.142,1.492-16.103,1.492c-4.497,0-7.962-0.619-10.6-1.892
		c-6.262-3.019-11.508-11.812-16.581-20.316c-6.696-11.219-13.619-22.819-24.681-25.334c-1.377-0.315-2.823-0.477-4.293-0.477
		c-9.265,0-18.796,6.289-28.015,12.37c-8.496,5.6-17.285,11.396-24.658,11.396c-7.373,0-16.162-5.796-24.658-11.396
		c-9.219-6.081-18.75-12.37-28.015-12.37c-1.47,0-2.916,0.162-4.293,0.477c-11.058,2.515-17.981,14.115-24.677,25.334
		c-5.073,8.504-10.319,17.297-16.573,20.316c-2.646,1.273-6.112,1.892-10.6,1.892c-4.962,0-10.627-0.758-16.104-1.492
		c-5.719-0.766-11.63-1.558-17.081-1.558c-7.754,0-13.354,1.584-17.623,4.988c-8.719,6.966-9.923,20.304-11.088,33.204
		c-0.9,9.969-1.831,20.277-6.262,25.823c-4.389,5.5-14.193,8.673-23.674,11.746c-12.369,4.004-25.162,8.146-30.042,18.27
		c-4.784,9.919-0.126,22.373,4.381,34.415c3.538,9.458,7.2,19.235,5.589,26.304c-1.515,6.673-8.866,13.696-15.973,20.489
		C9.815,235.16,0,244.537,0,256.002c0,11.462,9.811,20.835,19.304,29.9c7.111,6.793,14.462,13.816,15.981,20.497
		c1.607,7.065-2.054,16.838-5.593,26.296c-4.507,12.042-9.165,24.496-4.381,34.411c4.881,10.123,17.674,14.27,30.042,18.274
		c9.477,3.073,19.281,6.246,23.67,11.742c4.427,5.546,5.358,15.854,6.258,25.82c1.166,12.903,2.37,26.242,11.092,33.207
		c4.266,3.412,9.87,4.996,17.627,4.996c5.45,0,11.362-0.792,17.077-1.562c5.481-0.73,11.142-1.492,16.104-1.492
		c4.489,0,7.954,0.619,10.596,1.892c6.258,3.023,11.508,11.816,16.581,20.316c6.696,11.222,13.619,22.822,24.681,25.338
		c1.385,0.315,2.827,0.473,4.292,0.473c9.266,0,18.8-6.289,28.016-12.366c8.496-5.6,17.284-11.396,24.654-11.396
		c7.373,0,16.162,5.796,24.658,11.396c9.219,6.081,18.75,12.366,28.015,12.366c1.466,0,2.912-0.158,4.297-0.473
		c11.058-2.516,17.981-14.116,24.673-25.335c5.077-8.503,10.323-17.296,16.581-20.319c2.638-1.269,6.088-1.888,10.592-1.888
		c4.962,0,10.627,0.758,16.108,1.496c5.715,0.762,11.627,1.554,17.081,1.554c7.758,0,13.358-1.584,17.623-4.992
		c8.719-6.962,9.923-20.3,11.088-33.2c0.9-9.97,1.831-20.277,6.262-25.827c4.389-5.496,14.193-8.673,23.674-11.742
		c12.369-4.007,25.161-8.154,30.042-18.269c4.785-9.923,0.127-22.377-4.381-34.419c-3.538-9.458-7.2-19.234-5.588-26.304
		c1.515-6.673,8.866-13.696,15.973-20.485c9.493-9.065,19.304-18.438,19.304-29.904C512,244.537,502.185,235.16,492.696,226.098z
		 M467.942,259.986c-9.919,9.474-22.266,21.258-26.177,38.458c-3.981,17.527,2.092,33.762,6.973,46.816
		c0.504,1.338,1.081,2.877,1.646,4.446c-1.627,0.554-3.277,1.089-4.793,1.581c-13.15,4.262-29.519,9.566-40.622,23.474
		c-11.154,13.965-12.708,31.154-13.954,44.969c-0.134,1.492-0.288,3.223-0.469,4.97c-1.562-0.193-3.196-0.416-4.866-0.638
		c-6.327-0.846-13.5-1.808-20.896-1.808c-9.989,0-18.538,1.781-26.138,5.45c-15.946,7.697-24.727,22.408-31.938,34.497
		c-0.75,1.254-1.612,2.692-2.493,4.122c-1.338-0.861-2.654-1.73-3.823-2.5c-11.7-7.715-26.262-17.315-44.392-17.315
		c-18.127,0-32.689,9.6-44.389,17.315c-1.15,0.762-2.473,1.631-3.822,2.5c-0.946-1.534-1.87-3.077-2.666-4.422
		c-7.054-11.808-15.834-26.508-31.773-34.197c-7.6-3.673-16.162-5.458-26.17-5.458c-7.315,0-14.462,0.958-21.058,1.838
		c-1.6,0.216-3.17,0.427-4.673,0.612c-0.181-1.746-0.335-3.481-0.47-4.977c-1.25-13.812-2.8-31.004-13.946-44.958
		c-11.104-13.912-27.473-19.216-40.638-23.485c-1.438-0.462-3.104-1-4.777-1.57c0.566-1.569,1.142-3.107,1.642-4.446
		c4.885-13.046,10.962-29.278,6.977-46.808c-3.911-17.204-16.258-28.992-26.334-38.615c-1.2-1.154-2.6-2.489-3.962-3.835
		c1.427-1.411,2.888-2.803,4.127-3.988c9.919-9.477,22.258-21.266,26.169-38.458c3.985-17.535-2.092-33.766-7.03-46.958
		c-0.489-1.304-1.046-2.793-1.593-4.304c1.631-0.554,3.285-1.089,4.793-1.577c13.154-4.262,29.522-9.566,40.626-23.474
		c11.15-13.962,12.7-31.15,13.985-45.346c0.127-1.404,0.273-2.993,0.438-4.593c1.562,0.193,3.196,0.412,4.87,0.638
		c6.334,0.846,13.511,1.808,20.858,1.808c10.007,0,18.566-1.781,26.169-5.454c15.954-7.693,24.731-22.408,31.808-34.266
		c0.785-1.312,1.692-2.834,2.627-4.354c1.35,0.873,2.673,1.742,3.819,2.5c11.7,7.719,26.258,17.322,44.392,17.322
		c18.13,0,32.692-9.603,44.396-17.322c1.146-0.758,2.47-1.627,3.819-2.5c0.938,1.522,1.85,3.054,2.65,4.388
		c7.05,11.823,15.83,26.538,31.781,34.231c7.607,3.673,16.169,5.454,26.181,5.454c7.362,0,14.534-0.962,20.862-1.808
		c1.669-0.223,3.303-0.442,4.862-0.634c0.18,1.731,0.334,3.458,0.469,4.973c1.246,13.808,2.8,30.997,13.954,44.97
		c11.104,13.904,27.474,19.208,40.878,23.55c1.38,0.45,2.954,0.958,4.538,1.497c-0.57,1.569-1.146,3.111-1.646,4.446
		c-4.885,13.042-10.962,29.277-6.977,46.812c3.911,17.192,16.25,28.981,26.173,38.462c1.238,1.181,2.696,2.573,4.123,3.984
		C470.654,257.39,469.204,258.779,467.942,259.986z" style="fill: rgb(223, 86, 86);"></path>
	<path class="st0" d="M166.438,246.333c2.57-1.992,4.608-4.47,6.058-7.37c1.45-2.903,2.193-6.273,2.193-10.015
		c0-3.388-0.474-6.485-1.404-9.208c-0.962-2.803-2.538-5.203-4.623-7.077c-1.696-1.692-3.746-3.038-6.085-3.984
		c-2.273-0.923-5.158-1.635-8.55-2.123l-8.642-1.323c-1.396-0.181-2.562-0.477-3.462-0.885c-0.893-0.404-1.662-0.892-2.223-1.404
		c-0.577-0.581-0.973-1.181-1.2-1.842c-0.246-0.707-0.37-1.454-0.37-2.222c0-2.089,0.731-3.835,2.223-5.331
		c1.485-1.481,3.927-2.23,7.262-2.23c2.235,0,4.642,0.277,7.162,0.826c2.331,0.508,4.531,1.75,6.538,3.697l1.093,1.061l10.85-10.73
		l0.158-0.15h-0.004l0.112-0.111l-1.127-1.108c-3.254-3.177-6.888-5.481-10.807-6.834c-3.866-1.334-8.427-2.011-13.57-2.011
		c-4.069,0-7.781,0.577-11.046,1.707c-3.284,1.146-6.119,2.762-8.415,4.816c-2.327,2.065-4.127,4.565-5.358,7.43
		c-1.227,2.846-1.85,6.034-1.85,9.477c0,6.554,1.9,11.696,5.65,15.296c1.738,1.674,3.834,3.05,6.215,4.097
		c2.346,1.034,5.238,1.803,8.596,2.292l8.616,1.315c1.703,0.254,2.95,0.531,3.715,0.827c0.704,0.269,1.338,0.669,1.888,1.166
		c1.197,1.196,1.774,2.788,1.774,4.877c0,2.396-0.846,4.165-2.593,5.423c-1.881,1.35-4.811,2.034-8.711,2.034
		c-3.146,0-6.166-0.419-8.977-1.25c-2.708-0.8-5.142-2.269-7.238-4.369l-1.1-1.096l-11.3,11.296l1.081,1.1
		c3.665,3.742,7.811,6.381,12.323,7.83c4.419,1.427,9.503,2.154,15.107,2.154c3.912,0,7.623-0.516,11.027-1.535
		C160.866,249.818,163.9,248.302,166.438,246.333z" style="fill: rgb(223, 86, 86);"></path>
	<path class="st0" d="M245.55,238.256c1.038-2.081,1.819-4.374,2.311-6.815c0.492-2.412,0.792-5.07,0.892-7.9
		c0.1-2.785,0.154-5.908,0.154-9.374c0-3.462-0.054-6.588-0.154-9.369c-0.1-2.835-0.4-5.493-0.892-7.897
		c-0.492-2.446-1.27-4.738-2.311-6.819c-1.046-2.1-2.562-4.142-4.489-6.077c-2.558-2.558-5.523-4.558-8.796-5.95
		c-3.285-1.393-7.17-2.1-11.542-2.1c-4.373,0-8.273,0.707-11.589,2.096c-3.311,1.392-6.288,3.396-8.854,5.954
		c-1.934,1.938-3.442,3.985-4.492,6.077c-1.042,2.085-1.8,4.381-2.258,6.838c-0.454,2.385-0.738,5.031-0.838,7.878
		c-0.103,2.784-0.158,5.907-0.158,9.369c0,3.466,0.054,6.589,0.158,9.374c0.1,2.842,0.385,5.492,0.831,7.877
		c0.466,2.458,1.223,4.754,2.266,6.834c1.046,2.092,2.558,4.138,4.492,6.077c2.566,2.566,5.542,4.566,8.854,5.954
		c3.316,1.389,7.216,2.097,11.589,2.097c4.373,0,8.258-0.708,11.542-2.1c3.273-1.389,6.234-3.389,8.796-5.95
		C242.992,242.398,244.504,240.352,245.55,238.256z M231.523,222.633c-0.131,2.185-0.323,3.977-0.585,5.377
		c-0.242,1.311-0.558,2.373-0.934,3.154c-0.37,0.774-0.85,1.481-1.431,2.127c-0.873,0.985-1.988,1.815-3.315,2.47
		c-1.3,0.634-2.823,0.954-4.534,0.954c-1.715,0-3.238-0.319-4.531-0.954c-1.35-0.662-2.507-1.504-3.434-2.485
		c-0.573-0.631-1.046-1.338-1.419-2.112c-0.377-0.781-0.692-1.838-0.938-3.154c-0.262-1.396-0.434-3.177-0.53-5.358
		c-0.1-2.242-0.146-5.07-0.146-8.485c0-3.411,0.046-6.238,0.146-8.488c0.096-2.174,0.273-3.981,0.53-5.408
		c0.246-1.35,0.566-2.427,0.938-3.204c0.37-0.766,0.846-1.477,1.4-2.085c0.938-1,2.092-1.819,3.423-2.442
		c1.308-0.608,2.838-0.92,4.562-0.92c1.719,0,3.25,0.312,4.562,0.92c1.315,0.615,2.423,1.422,3.3,2.419
		c0.569,0.63,1.05,1.346,1.419,2.111c0.377,0.777,0.692,1.85,0.934,3.2c0.262,1.434,0.454,3.246,0.585,5.434
		c0.134,2.238,0.2,5.058,0.2,8.462C231.723,217.575,231.658,220.394,231.523,222.633z" style="fill: rgb(223, 86, 86);"></path>
	<polygon class="st0" points="320.196,236.11 287.489,236.11 287.489,176.563 270.3,176.563 270.3,251.771 320.196,251.771 	" style="fill: rgb(223, 86, 86);"></polygon>
	<path class="st0" d="M393.492,199.029c-0.281-2.146-0.769-4.169-1.446-6.011c-0.689-1.835-1.619-3.597-2.77-5.262
		c-2.715-3.846-5.981-6.708-9.715-8.504c-3.708-1.785-8.192-2.689-13.331-2.689h-27.577v75.208h27.577
		c5.142,0,9.627-0.904,13.331-2.685c3.734-1.796,7-4.654,9.715-8.515c1.146-1.65,2.077-3.415,2.77-5.254
		c0.681-1.842,1.165-3.862,1.446-6.012c0.278-2.107,0.45-4.423,0.516-6.946c0.073-2.478,0.107-5.204,0.107-8.193
		c0-2.985-0.034-5.715-0.107-8.192C393.942,203.452,393.77,201.137,393.492,199.029z M376.834,221.46
		c-0.069,1.996-0.2,3.696-0.396,5.1c-0.181,1.33-0.442,2.465-0.781,3.377c-0.307,0.838-0.75,1.604-1.327,2.303
		c-2.069,2.601-5.119,3.87-9.315,3.87h-9.173v-43.877h9.173c4.196,0,7.242,1.262,9.338,3.892c0.554,0.67,0.997,1.435,1.304,2.274
		c0.338,0.911,0.6,2.05,0.781,3.377c0.196,1.407,0.327,3.111,0.396,5.096c0.058,2.05,0.093,4.481,0.093,7.296
		C376.927,216.986,376.892,219.414,376.834,221.46z" style="fill: rgb(223, 86, 86);"></path>
	<path class="st0" d="M212.623,296.098c-0.496-2.45-1.273-4.742-2.308-6.812c-1.054-2.1-2.562-4.146-4.492-6.077
		c-2.566-2.558-5.523-4.562-8.796-5.946c-3.285-1.392-7.17-2.1-11.542-2.1c-4.377,0-8.274,0.704-11.585,2.097
		c-3.315,1.388-6.292,3.388-8.85,5.95c-1.935,1.931-3.446,3.977-4.497,6.077c-1.038,2.077-1.8,4.377-2.265,6.834
		c-0.454,2.397-0.735,5.046-0.835,7.878c-0.1,2.788-0.154,5.907-0.154,9.377c0,3.462,0.054,6.588,0.154,9.369
		c0.1,2.835,0.381,5.485,0.835,7.877c0.465,2.462,1.226,4.762,2.265,6.835c1.05,2.104,2.562,4.146,4.493,6.077
		c2.562,2.562,5.538,4.566,8.85,5.954c3.315,1.393,7.212,2.093,11.589,2.093c4.373,0,8.258-0.704,11.542-2.097
		c3.273-1.388,6.234-3.392,8.792-5.95c1.934-1.931,3.442-3.973,4.496-6.077c1.035-2.066,1.812-4.358,2.308-6.815
		c0.492-2.408,0.792-5.062,0.892-7.893c0.104-2.785,0.158-5.911,0.158-9.373c0-3.47-0.054-6.589-0.158-9.377
		C213.415,301.167,213.115,298.514,212.623,296.098z M196.285,321.833c-0.131,2.188-0.319,3.981-0.581,5.385
		c-0.242,1.3-0.554,2.362-0.934,3.15c-0.374,0.774-0.854,1.485-1.439,2.127c-0.873,0.988-1.984,1.819-3.315,2.469
		c-1.296,0.631-2.823,0.954-4.53,0.954c-1.712,0-3.238-0.323-4.534-0.954c-1.346-0.658-2.508-1.5-3.427-2.484
		c-0.57-0.627-1.054-1.338-1.423-2.112c-0.377-0.781-0.692-1.838-0.934-3.15c-0.262-1.397-0.435-3.185-0.535-5.358
		c-0.103-2.242-0.146-5.074-0.146-8.485c0-3.415,0.042-6.246,0.146-8.489c0.1-2.181,0.278-3.985,0.535-5.411
		c0.242-1.346,0.558-2.423,0.934-3.196c0.37-0.77,0.85-1.485,1.408-2.097c0.93-0.996,2.081-1.815,3.415-2.438
		c1.307-0.611,2.842-0.919,4.562-0.919c1.715,0,3.25,0.308,4.558,0.919c1.315,0.616,2.423,1.423,3.304,2.419
		c0.573,0.631,1.05,1.346,1.423,2.112c0.377,0.788,0.692,1.866,0.934,3.196c0.262,1.438,0.45,3.25,0.581,5.434
		c0.134,2.238,0.2,5.062,0.2,8.47C196.485,316.779,196.419,319.602,196.285,321.833z" style="fill: rgb(223, 86, 86);"></path>
	<path class="st0" d="M273.038,324.21c0,3.8-0.966,6.638-2.954,8.689c-1.974,2.03-4.604,3.019-8.05,3.019
		c-3.434,0-6.05-0.985-7.988-3.012c-1.958-2.046-2.908-4.888-2.908-8.696v-48.438H233.95v48.942c0,4.054,0.742,7.773,2.211,11.066
		c1.466,3.288,3.5,6.134,6.038,8.461c2.534,2.316,5.527,4.139,8.908,5.42c3.369,1.277,7.046,1.919,10.926,1.919
		c3.885,0,7.562-0.642,10.931-1.919c3.381-1.281,6.373-3.104,8.904-5.423c2.546-2.331,4.577-5.177,6.042-8.458
		c1.466-3.3,2.212-7.023,2.212-11.066v-48.942h-17.085V324.21z" style="fill: rgb(223, 86, 86);"></path>
	<polygon class="st0" points="307.466,291.433 326.3,291.433 326.3,350.971 343.485,350.971 343.485,291.433 362.319,291.433 
		362.319,275.771 307.466,275.771 	" style="fill: rgb(223, 86, 86);"></polygon>
</g>
</svg>
